# xmcd
#
# Track frame offsets:
#	150
#	15844
#	32715
#	51540
#	64578
#	78246
#	101260
#	120924
#	139956
#	157296
#	171638
#	185406
#	196742
#	220260
#	236846
#
# Disc length: 3426 seconds
#
# Revision: 0
# Processed by: cddbd v1.5.2PL0 Copyright (c) Steve Scherf et al.
# Submitted via: audiograbber 1.83.01
#
DISCID=cd0d600f
DTITLE=Mauro Ferrarese - Blues an'Other Stories
DYEAR=1900
DGENRE=Blues
TTITLE0=Parchman Farm Blues
TTITLE1=God Moves On The Water
TTITLE2=The Soul Of The Man
TTITLE3=Stars Begin To Fade
TTITLE4=John Henry
TTITLE5=Milk Cow Blues
TTITLE6=Chicken You Can Roost Behind The Moon
TTITLE7=Savannah Mama
TTITLE8=Some Of These Days
TTITLE9=We All Gonna Face To The Rising Sun
TTITLE10=Radio Blues
TTITLE11=Don't Die Until Yo'Dead
TTITLE12=Sickbed Blues
TTITLE13=My Black Mama
TTITLE14=Goodnight Irene
EXTD=
EXTT0=
EXTT1=
EXTT2=
EXTT3=
EXTT4=
EXTT5=
EXTT6=
EXTT7=
EXTT8=
EXTT9=
EXTT10=
EXTT11=
EXTT12=
EXTT13=
EXTT14=
PLAYORDER=
